<svg xmlns="http://www.w3.org/2000/svg" xmlns:xlink="http://www.w3.org/1999/xlink" version="1.1" width="256" height="256" viewBox="0 0 256 256" xml:space="preserve">
<desc>Created with Fabric.js 1.7.22</desc>
<defs>
</defs>
<g transform="translate(128 128) scale(0.72 0.72)" style="">
	<g style="stroke: none; stroke-width: 0; stroke-dasharray: none; stroke-linecap: butt; stroke-linejoin: miter; stroke-miterlimit: 10; fill: none; fill-rule: nonzero; opacity: 1;" transform="translate(-175.05 -175.05000000000004) scale(3.89 3.89)" >
	<path d="M 68.203 39.251 c 7.33 -3.106 12.484 -10.373 12.484 -18.821 C 80.688 9.165 71.523 0 60.259 0 c -7.065 0 -13.301 3.607 -16.971 9.073 C 31.442 10.018 22.308 20.577 22.284 33.61 c -0.651 12.755 -3.804 21.515 -10.503 29.244 c -1.592 1.742 -2.469 4.046 -2.469 6.486 c 0 5.108 3.877 9.265 8.642 9.265 h 13.818 C 32.743 85.043 38.296 90 45 90 s 12.258 -4.957 13.228 -11.395 h 13.817 c 4.765 0 8.642 -4.156 8.642 -9.265 c 0 -2.441 -0.877 -4.745 -2.434 -6.447 C 72.547 56.31 69.418 48.965 68.203 39.251 z M 60.259 4 c 9.059 0 16.429 7.37 16.429 16.43 c 0 9.059 -7.37 16.429 -16.429 16.429 c -9.06 0 -16.43 -7.37 -16.43 -16.429 C 43.829 11.37 51.199 4 60.259 4 z M 45 86 c -4.494 0 -8.261 -3.172 -9.18 -7.395 h 18.36 C 53.261 82.828 49.494 86 45 86 z M 72.046 74.605 H 58.395 H 31.606 H 17.954 c -2.56 0 -4.642 -2.361 -4.642 -5.265 c 0 -1.439 0.505 -2.785 1.457 -3.827 c 7.277 -8.395 10.828 -18.187 11.513 -31.75 l 0.002 -0.101 c 0 -9.983 6.273 -18.226 14.794 -20.198 c -0.794 2.178 -1.249 4.517 -1.249 6.966 c 0 11.265 9.165 20.429 20.43 20.429 c 1.393 0 2.753 -0.142 4.068 -0.409 c 1.38 10.092 4.876 18.108 10.939 25.103 c 0.917 1.003 1.422 2.349 1.422 3.788 C 76.688 72.244 74.605 74.605 72.046 74.605 z" style="stroke: none; stroke-width: 1; stroke-dasharray: none; stroke-linecap: butt; stroke-linejoin: miter; stroke-miterlimit: 10; fill: rgb(0,0,0); fill-rule: nonzero; opacity: 1;" transform=" matrix(1 0 0 1 0 0) " stroke-linecap="round" />
	<path d="M 56.981 29.925 c -0.004 0 -0.009 0 -0.013 0 c -0.578 -0.004 -1.126 -0.257 -1.503 -0.695 l -6.46 -7.501 c -0.721 -0.837 -0.627 -2.1 0.211 -2.821 c 0.837 -0.722 2.1 -0.625 2.82 0.21 l 4.964 5.764 l 11.192 -12.66 c 0.729 -0.827 1.995 -0.905 2.822 -0.174 c 0.828 0.731 0.906 1.996 0.174 2.823 L 58.479 29.25 C 58.101 29.68 57.555 29.925 56.981 29.925 z" style="stroke: none; stroke-width: 1; stroke-dasharray: none; stroke-linecap: butt; stroke-linejoin: miter; stroke-miterlimit: 10; fill: rgb(0,0,0); fill-rule: nonzero; opacity: 1;" transform=" matrix(1 0 0 1 0 0) " stroke-linecap="round" />
</g>
</g>
</svg>