<svg xmlns="http://www.w3.org/2000/svg" xmlns:xlink="http://www.w3.org/1999/xlink" version="1.1" width="256" height="256" viewBox="0 0 256 256" xml:space="preserve">
<desc>Created with Fabric.js 1.7.22</desc>
<defs>
</defs>
<g transform="translate(128 128) scale(0.72 0.72)" style="">
	<g style="stroke: none; stroke-width: 0; stroke-dasharray: none; stroke-linecap: butt; stroke-linejoin: miter; stroke-miterlimit: 10; fill: none; fill-rule: nonzero; opacity: 1;" transform="translate(-175.05 -175.05000000000004) scale(3.89 3.89)" >
	<path d="M 68.799 39.997 c 7.139 -3.357 12.105 -10.599 12.105 -18.996 C 80.904 9.421 71.483 0 59.903 0 c -7.08 0 -13.339 3.532 -17.145 8.915 c -11.868 1.21 -20.956 11.841 -20.992 24.932 c -0.625 12.193 -3.628 20.552 -9.984 27.885 c -1.732 1.895 -2.686 4.396 -2.686 7.042 c 0 5.567 4.256 10.097 9.488 10.097 h 12.615 C 32.579 85.224 38.239 90 45 90 c 6.761 0 12.421 -4.776 13.801 -11.129 h 12.616 c 5.231 0 9.487 -4.529 9.487 -10.097 c 0 -2.647 -0.954 -5.148 -2.634 -6.982 C 72.987 55.695 70.024 48.901 68.799 39.997 z M 59.903 6 c 8.271 0 15.001 6.729 15.001 15.001 s -6.729 15.001 -15.001 15.001 s -15 -6.729 -15 -15.001 S 51.632 6 59.903 6 z M 45 84 c -3.423 0 -6.359 -2.127 -7.555 -5.129 h 15.111 C 51.359 81.873 48.423 84 45 84 z M 71.417 72.871 H 59.129 H 30.871 H 18.583 c -1.923 0 -3.488 -1.838 -3.488 -4.097 c 0 -1.145 0.396 -2.207 1.167 -3.053 c 7.272 -8.389 10.819 -18.147 11.5 -31.645 l 0.004 -0.151 c 0 -8.358 4.984 -15.596 11.822 -18.15 c -0.431 1.674 -0.685 3.418 -0.685 5.225 c 0 11.58 9.42 21.001 21 21.001 c 1.053 0 2.081 -0.103 3.093 -0.254 c 1.472 9.573 4.927 17.266 10.794 24.034 c 0.719 0.785 1.114 1.848 1.114 2.992 C 74.904 71.033 73.34 72.871 71.417 72.871 z" style="stroke: none; stroke-width: 1; stroke-dasharray: none; stroke-linecap: butt; stroke-linejoin: miter; stroke-miterlimit: 10; fill: rgb(0,0,0); fill-rule: nonzero; opacity: 1;" transform=" matrix(1 0 0 1 0 0) " stroke-linecap="round" />
	<path d="M 57.473 29.551 c -0.007 0 -0.013 0 -0.02 0 c -0.866 -0.006 -1.688 -0.386 -2.254 -1.042 l -4.717 -5.478 c -1.081 -1.255 -0.939 -3.15 0.316 -4.231 c 1.254 -1.081 3.147 -0.94 4.23 0.316 l 2.474 2.873 l 7.006 -7.924 c 1.097 -1.241 2.992 -1.358 4.234 -0.26 c 1.241 1.098 1.357 2.993 0.26 4.235 l -9.283 10.5 C 59.15 29.182 58.332 29.551 57.473 29.551 z" style="stroke: none; stroke-width: 1; stroke-dasharray: none; stroke-linecap: butt; stroke-linejoin: miter; stroke-miterlimit: 10; fill: rgb(0,0,0); fill-rule: nonzero; opacity: 1;" transform=" matrix(1 0 0 1 0 0) " stroke-linecap="round" />
</g>
</g>
</svg>